<?xml version="1.0" standalone="no"?>
<!DOCTYPE svg PUBLIC "-//W3C//DTD SVG 20010904//EN"
 "http://www.w3.org/TR/2001/REC-SVG-20010904/DTD/svg10.dtd">
<svg version="1.0" xmlns="http://www.w3.org/2000/svg"
 width="512.000000pt" height="512.000000pt" viewBox="0 0 512.000000 512.000000"
 preserveAspectRatio="xMidYMid meet">

<g transform="translate(0.000000,512.000000) scale(0.100000,-0.100000)"
fill="#000000" stroke="none">
<path d="M2275 5065 c-133 -22 -187 -32 -263 -49 -73 -16 -302 -87 -357 -111
-16 -7 -70 -30 -120 -51 -91 -38 -100 -42 -228 -115 -40 -23 -87 -50 -106 -61
-34 -19 -115 -81 -136 -102 -5 -6 -32 -27 -59 -46 -131 -95 -305 -270 -407
-410 -41 -56 -88 -121 -106 -145 -72 -98 -243 -410 -243 -443 0 -6 -7 -26 -14
-44 -124 -280 -191 -634 -190 -1003 0 -173 12 -277 50 -440 9 -38 17 -79 18
-90 2 -20 51 -182 66 -220 5 -11 15 -40 23 -65 67 -207 269 -546 450 -757 126
-146 305 -316 403 -383 12 -8 52 -36 88 -62 284 -204 676 -359 1036 -412 190
-28 355 -39 462 -31 136 9 403 42 453 56 22 6 51 13 65 16 176 39 402 127 609
239 105 56 121 65 162 96 20 16 40 28 43 28 18 0 192 135 293 229 189 173 269
264 376 426 36 55 75 112 87 127 11 14 20 28 20 31 0 2 18 37 41 78 50 90 115
237 124 281 4 18 11 38 16 43 8 11 26 64 49 145 7 25 18 61 25 80 7 19 16 55
20 80 4 25 9 54 12 65 50 236 68 445 53 632 -11 140 -27 268 -40 323 -5 19
-11 54 -14 78 -5 39 -47 193 -82 297 -38 116 -110 284 -148 350 -84 144 -93
159 -145 240 -25 39 -48 72 -51 75 -4 3 -20 25 -37 50 -40 57 -233 272 -298
331 -44 39 -145 121 -281 227 -23 18 -45 32 -48 32 -4 0 -39 20 -79 44 -74 45
-248 133 -302 154 -17 6 -66 25 -110 41 -144 56 -440 132 -570 147 -110 12
-530 12 -610 -1z m560 -90 c145 -18 287 -45 385 -74 77 -23 207 -67 235 -80
11 -5 59 -26 107 -46 84 -34 207 -99 288 -150 22 -14 42 -25 45 -25 7 0 148
-100 160 -114 6 -6 27 -22 47 -36 60 -42 214 -195 336 -335 69 -79 202 -265
202 -282 0 -6 4 -13 8 -15 7 -3 30 -41 94 -163 40 -75 88 -182 88 -197 0 -8
11 -41 25 -72 14 -31 29 -73 35 -94 5 -20 20 -77 33 -127 13 -49 27 -117 31
-150 4 -33 14 -82 21 -108 8 -26 19 -123 26 -215 13 -189 2 -380 -31 -537 -10
-49 -21 -108 -25 -130 -8 -49 -84 -306 -95 -320 -4 -5 -13 -28 -20 -50 -17
-54 -128 -277 -173 -347 -21 -31 -37 -60 -37 -63 0 -3 -28 -43 -62 -88 -60
-80 -77 -101 -161 -202 -47 -56 -193 -204 -249 -252 -57 -50 -249 -194 -267
-201 -9 -3 -50 -27 -91 -52 -106 -64 -249 -132 -360 -170 -19 -7 -44 -16 -55
-20 -98 -39 -273 -83 -428 -107 -119 -19 -532 -26 -667 -11 -74 8 -238 40
-290 56 -276 84 -303 95 -491 186 -168 82 -279 149 -419 254 -59 44 -250 213
-250 221 0 3 -30 38 -66 76 -91 96 -163 192 -266 353 -19 30 -90 164 -136 257
-29 57 -90 211 -97 244 -2 9 -9 30 -14 46 -25 70 -60 205 -71 270 -50 306 -52
328 -46 490 5 139 19 251 54 438 5 26 7 47 5 47 -2 0 -1 6 4 13 4 6 9 22 10
33 7 47 114 355 149 429 21 44 39 82 40 85 5 22 36 79 48 90 9 7 16 19 16 27
0 9 19 45 43 82 24 36 58 88 75 115 45 70 98 128 272 303 193 194 188 190 296
265 188 134 366 231 529 292 55 21 116 44 135 51 265 102 696 148 1025 110z"/>
<path d="M2287 4886 c-43 -8 -84 -17 -92 -20 -12 -4 -15 -38 -17 -162 -3 -177
4 -162 -98 -189 -36 -10 -94 -26 -129 -38 l-65 -20 -20 26 c-12 15 -48 74 -81
132 -33 58 -68 108 -78 111 -49 16 -510 -254 -624 -365 -21 -20 -12 -41 99
-211 50 -77 50 -75 -59 -188 -54 -56 -104 -102 -110 -102 -7 0 -65 29 -129 65
-64 36 -126 67 -137 68 -23 2 -79 -71 -194 -258 -17 -28 -106 -207 -139 -280
-47 -107 -48 -105 101 -189 75 -43 129 -80 128 -87 -5 -44 -62 -269 -71 -279
-2 -3 -74 -7 -160 -10 l-157 -5 -13 -105 c-13 -105 -10 -376 6 -540 l7 -75
162 -5 c89 -3 163 -7 166 -10 2 -3 11 -32 20 -65 35 -133 48 -178 58 -196 16
-30 -2 -45 -146 -124 -107 -59 -117 -67 -110 -94 18 -72 111 -256 187 -371 92
-139 167 -239 187 -249 13 -7 34 1 81 29 36 22 96 57 135 79 l69 40 101 -97
c55 -53 101 -100 103 -103 1 -3 -22 -48 -51 -100 -71 -123 -89 -164 -85 -186
5 -30 210 -165 368 -244 199 -99 275 -128 289 -114 5 6 22 33 37 60 15 28 34
64 43 80 9 17 30 52 45 78 32 54 27 54 141 22 33 -9 85 -22 115 -28 l55 -13 5
-154 5 -155 28 -13 c40 -19 388 -28 524 -13 59 6 125 14 146 17 l37 6 0 158
c0 102 4 161 11 165 6 4 43 15 82 25 40 10 97 27 129 37 54 19 88 16 88 -7 0
-5 19 -38 43 -74 23 -35 54 -85 69 -110 16 -26 34 -49 42 -52 21 -8 280 121
406 202 58 37 107 70 110 73 3 3 31 26 63 50 31 24 57 48 57 53 0 6 -15 35
-34 66 -87 145 -116 197 -116 207 0 6 44 55 99 109 l98 98 59 -30 c32 -17 76
-42 97 -56 53 -37 93 -56 114 -56 20 0 58 43 120 135 58 86 133 215 133 228 0
7 9 23 20 37 11 14 20 29 20 33 0 5 16 43 36 84 56 118 56 118 31 141 -12 11
-72 46 -134 78 -62 32 -115 64 -117 70 -3 7 6 52 18 101 13 48 27 106 31 128
11 64 13 65 167 65 77 0 147 4 157 10 15 7 21 31 31 111 15 120 9 435 -11 551
l-13 78 -160 2 -161 3 -9 40 c-5 22 -21 82 -37 133 -16 51 -29 99 -29 107 0
11 119 94 138 96 18 1 117 76 120 91 4 19 -64 168 -131 288 -58 104 -206 320
-228 333 -12 8 -32 0 -80 -29 -75 -46 -132 -78 -177 -101 l-32 -17 -73 71
c-39 39 -90 86 -111 106 l-40 34 19 29 c23 34 29 44 83 147 62 117 64 110 -63
199 -127 88 -141 97 -330 191 -76 38 -156 72 -176 74 -35 5 -38 3 -56 -33 -43
-87 -107 -200 -124 -218 -15 -16 -23 -18 -41 -9 -13 5 -70 20 -128 33 -58 13
-111 28 -117 33 -10 7 -13 52 -13 163 l0 154 -27 11 c-45 18 -512 21 -606 5z
m410 -351 c2 -77 5 -149 8 -161 4 -18 17 -23 82 -33 135 -22 247 -49 370 -91
161 -56 158 -56 194 10 17 30 42 74 55 97 13 23 24 48 24 55 0 7 11 26 23 42
l24 29 84 -45 c146 -78 171 -96 163 -121 -7 -26 -79 -160 -105 -198 -33 -48
-34 -74 -1 -95 90 -58 262 -221 353 -334 35 -44 71 -80 79 -80 8 0 45 19 81
43 36 23 74 47 85 53 10 6 38 21 61 34 l42 23 21 -24 c11 -13 28 -41 36 -61 9
-21 19 -38 23 -38 13 0 64 -118 58 -134 -4 -9 -21 -24 -37 -34 -17 -9 -57 -33
-88 -53 -31 -20 -76 -49 -100 -63 -42 -26 -43 -28 -28 -51 22 -34 104 -253
111 -300 4 -22 14 -63 22 -92 8 -28 17 -80 21 -115 l7 -63 155 -3 c131 -2 157
-5 168 -19 17 -23 17 -253 0 -276 -11 -14 -36 -17 -163 -19 l-149 -3 -7 -35
c-4 -19 -12 -66 -18 -105 -5 -38 -17 -92 -25 -120 -8 -27 -21 -75 -29 -105 -8
-30 -29 -93 -46 -140 -17 -47 -31 -90 -31 -96 0 -6 59 -44 130 -84 72 -40 133
-77 136 -81 6 -10 -87 -189 -122 -236 -24 -31 -24 -31 -56 -16 -18 9 -78 42
-134 75 -55 32 -106 58 -112 58 -6 0 -21 -15 -33 -32 -25 -36 -98 -126 -115
-143 -84 -82 -199 -188 -236 -219 -27 -21 -48 -43 -48 -48 0 -6 20 -44 45 -86
25 -41 45 -76 45 -78 0 -2 14 -23 30 -46 36 -49 37 -58 8 -85 -29 -25 -212
-133 -226 -133 -13 0 -78 98 -100 150 -8 19 -28 54 -45 77 -26 36 -34 42 -56
36 -14 -3 -30 -9 -36 -14 -46 -35 -351 -126 -460 -136 -36 -3 -69 -11 -75 -18
-5 -6 -11 -81 -12 -166 l-3 -154 -147 -3 -148 -3 0 153 c0 84 -4 158 -8 164
-4 7 -45 17 -92 23 -47 6 -92 13 -100 15 -8 1 -33 6 -55 10 -42 8 -213 60
-255 78 -75 32 -95 37 -107 30 -5 -4 -36 -56 -68 -117 -32 -60 -67 -120 -78
-132 l-20 -22 -68 35 c-101 50 -179 103 -179 119 0 8 14 37 30 63 17 27 30 52
30 55 0 3 16 32 35 64 43 72 44 94 3 128 -105 85 -129 105 -187 160 -34 33
-95 97 -133 143 -41 48 -78 82 -89 82 -10 0 -35 -10 -56 -21 -88 -49 -130 -75
-167 -101 -21 -15 -43 -28 -47 -28 -17 0 -149 231 -149 261 0 10 121 89 188
123 27 14 54 31 60 39 13 16 14 13 -39 132 -26 59 -59 155 -54 155 2 0 -1 15
-6 33 -31 104 -48 179 -55 235 l-7 62 -147 0 c-82 0 -155 3 -164 6 -14 5 -16
28 -16 145 0 126 2 139 19 149 11 5 83 10 160 10 78 0 141 3 142 8 0 4 2 32 5
62 6 71 79 361 104 413 11 23 20 49 20 58 0 10 4 20 9 23 5 3 11 15 14 25 4
17 -11 30 -87 74 -50 29 -112 63 -138 76 -27 13 -48 29 -48 37 0 16 46 106
101 197 40 67 46 68 140 7 34 -22 66 -40 70 -40 5 0 30 -13 56 -30 26 -16 50
-30 54 -30 5 0 30 31 56 70 50 72 253 278 335 340 26 19 47 41 48 49 0 16 -52
108 -123 218 -15 24 -27 46 -27 51 0 9 101 76 188 126 l60 34 20 -21 c11 -12
41 -58 67 -102 58 -97 93 -145 106 -145 5 0 31 10 57 21 26 12 61 27 77 35 75
32 251 75 408 99 26 4 37 11 38 23 0 9 0 78 0 152 0 180 -8 171 173 168 l141
-3 2 -140z"/>
<path d="M2387 4233 c-4 -3 -7 -15 -7 -25 0 -28 34 -19 38 10 3 21 -16 31 -31
15z"/>
<path d="M2485 4180 c-14 -16 -16 -23 -7 -32 7 -7 12 -39 12 -73 0 -34 5 -66
12 -73 15 -15 53 -16 79 -2 26 14 24 32 -3 30 -46 -4 -48 -2 -48 55 0 54 0 55
30 57 17 0 35 1 42 2 7 1 25 -32 40 -73 l27 -74 -20 -29 c-11 -15 -29 -33 -40
-38 -26 -15 -24 -30 4 -30 33 0 50 22 103 136 25 54 51 102 56 105 18 11 -2
29 -32 29 -32 0 -49 -17 -27 -26 12 -4 13 -13 7 -34 -18 -63 -26 -66 -44 -15
-20 59 -20 55 1 55 12 0 14 3 6 11 -6 6 -43 11 -82 12 -52 0 -71 4 -71 14 0
20 -24 16 -45 -7z"/>
<path d="M3107 4162 c-10 -10 -17 -24 -17 -30 0 -6 -9 -20 -21 -31 -11 -10
-16 -22 -11 -25 14 -9 -28 -125 -44 -119 -6 2 -15 0 -19 -6 -6 -11 28 -28 78
-38 16 -3 27 -1 27 6 0 6 -7 11 -15 11 -19 0 -19 11 2 76 15 48 19 53 40 48
17 -5 23 -2 23 10 0 9 -7 16 -15 16 -18 0 -19 23 -4 53 16 30 15 30 38 16 23
-15 36 -7 28 16 -9 22 -70 20 -90 -3z"/>
<path d="M2360 4144 c0 -10 6 -14 14 -11 17 7 26 -21 26 -85 0 -28 -5 -48 -12
-51 -29 -10 3 -18 46 -12 42 7 66 25 32 25 -18 0 -26 22 -26 75 0 63 -7 75
-46 75 -25 0 -34 -4 -34 -16z"/>
<path d="M2245 4120 c-35 -39 5 -90 71 -90 19 0 25 -5 22 -17 -5 -27 -54 -29
-70 -4 -16 26 -28 27 -28 2 0 -33 29 -54 68 -48 45 8 62 23 62 58 0 32 -10 40
-64 54 -45 11 -57 30 -26 40 14 4 28 1 41 -11 23 -20 33 -14 24 15 -9 29 -74
29 -100 1z"/>
<path d="M2903 4128 c-22 -11 -53 -64 -53 -92 0 -43 43 -86 85 -86 45 0 95 58
95 110 0 50 -79 92 -127 68z m61 -34 c36 -35 4 -134 -37 -118 -28 10 -39 50
-27 95 12 43 36 52 64 23z"/>
<path d="M2165 4110 c-4 -6 -13 -9 -21 -6 -17 6 -74 -13 -74 -25 0 -5 8 -9 19
-9 14 0 22 -14 35 -58 20 -71 20 -76 2 -69 -8 3 -29 -1 -47 -10 -28 -14 -36
-14 -57 -2 -38 21 -36 32 13 61 49 30 55 42 26 58 -31 16 -69 12 -92 -11 -30
-30 -22 -104 16 -136 32 -28 50 -29 95 -4 19 10 53 21 75 25 22 4 48 12 58 17
22 12 12 32 -13 24 -15 -5 -21 3 -33 42 -15 54 -7 77 25 67 16 -5 19 -2 16 17
-3 25 -32 37 -43 19z m-135 -88 c0 -10 -41 -35 -47 -28 -11 11 7 36 27 36 11
0 20 -3 20 -8z"/>
<path d="M3267 4093 c-13 -12 -7 -21 21 -26 60 -14 61 -19 10 -114 -30 -57
-52 -87 -62 -85 -8 1 -17 -2 -21 -7 -7 -12 89 -64 99 -54 11 11 6 23 -9 23 -8
0 -15 3 -15 6 0 14 95 184 103 184 4 0 20 -12 34 -26 23 -23 27 -24 41 -10 19
19 26 12 -80 69 -84 46 -108 54 -121 40z"/>
<path d="M1883 4008 c-25 -12 -31 -38 -9 -38 16 0 26 -21 26 -57 l0 -26 -32
26 c-18 14 -32 32 -30 41 4 21 -22 21 -53 0 -29 -19 -32 -34 -7 -34 9 0 44
-23 77 -50 32 -27 62 -46 65 -42 8 9 0 192 -8 191 -4 0 -17 -5 -29 -11z"/>
<path d="M1663 3954 c-7 -18 11 -39 26 -30 17 11 13 46 -4 46 -9 0 -18 -7 -22
-16z"/>
<path d="M1697 3900 c-29 -23 -29 -41 1 -34 12 3 27 -11 50 -47 32 -48 32 -52
15 -65 -16 -12 -22 -8 -61 36 -50 57 -80 64 -110 25 -11 -14 -24 -25 -28 -25
-12 -1 -54 -36 -54 -45 0 -4 9 -5 19 -2 15 3 31 -9 62 -46 27 -31 38 -52 31
-55 -7 -2 -12 -8 -12 -13 0 -20 28 -7 80 37 30 25 79 61 108 80 48 31 72 64
37 50 -11 -4 -26 9 -48 41 -63 91 -58 88 -90 63z m-20 -141 c18 -22 30 -46 27
-54 -5 -13 -43 -31 -48 -23 -1 1 -17 20 -35 42 -31 36 -31 39 -15 57 24 27 35
23 71 -22z"/>
<path d="M3416 3863 c-67 -66 -31 -153 64 -153 17 0 29 -4 26 -9 -13 -20 15
-62 49 -77 19 -8 35 -20 35 -27 0 -7 15 -28 33 -47 44 -47 138 -166 166 -212
25 -42 41 -49 41 -19 0 11 15 28 35 41 68 42 82 75 49 111 -9 10 -23 32 -33
49 -18 33 -36 41 -36 15 0 -8 -23 -31 -52 -50 -45 -30 -53 -32 -64 -19 -10 13
-5 23 36 64 40 40 47 53 41 74 -3 14 -17 31 -31 39 l-25 13 46 38 45 38 -22
24 c-28 30 -39 30 -39 1 0 -16 -23 -43 -77 -90 -74 -65 -99 -80 -90 -54 2 6
-10 19 -27 27 -27 13 -31 20 -31 54 0 30 6 43 25 58 31 23 60 15 60 -16 0 -28
15 -50 29 -42 18 12 13 43 -12 72 -36 41 -81 38 -124 -9 -33 -37 -34 -37 -64
-22 -32 17 -49 48 -41 77 5 22 1 22 53 -2 24 -11 50 -20 57 -20 19 0 14 45 -9
74 -28 36 -77 36 -113 -1z m82 -5 c16 -16 15 -28 -2 -28 -17 0 -38 24 -29 33
9 10 17 9 31 -5z m256 -243 c20 -20 12 -38 -29 -69 -35 -27 -59 -26 -70 2 -4
12 5 27 32 49 44 38 46 38 67 18z m130 -168 c9 -15 6 -21 -14 -37 -54 -41 -71
-46 -86 -25 -21 29 -17 39 24 63 42 25 60 25 76 -1z"/>
<path d="M2515 3825 c-40 -19 -59 -35 -75 -65 -11 -21 -11 -25 5 -35 10 -5 40
-29 67 -52 27 -24 51 -43 53 -43 2 0 19 15 37 33 18 18 50 43 71 56 20 12 37
26 37 30 0 10 -61 67 -87 80 -29 15 -71 13 -108 -4z"/>
<path d="M1407 3762 c-27 -28 -35 -52 -18 -52 6 0 13 5 16 10 7 11 121 -74
136 -101 16 -30 10 -57 -17 -78 -15 -12 -37 -21 -49 -21 -28 0 -146 106 -139
124 3 8 1 17 -4 20 -10 6 -72 -58 -72 -74 0 -13 13 -13 26 0 6 6 34 -12 78
-50 38 -33 77 -62 87 -65 35 -11 109 44 123 91 13 41 -11 75 -113 163 -13 12
-21 27 -18 35 11 27 -9 26 -36 -2z"/>
<path d="M2305 3722 c-11 -2 -24 -7 -28 -12 -5 -4 41 -57 102 -118 61 -61 111
-115 111 -121 0 -6 13 -38 29 -73 16 -35 36 -81 44 -103 l15 -40 6 30 c30 141
92 252 193 344 36 34 70 61 74 61 5 0 9 6 9 14 0 21 -35 29 -88 21 -42 -6 -56
-16 -125 -86 -88 -90 -78 -89 -165 -7 -76 72 -130 100 -177 90z"/>
<path d="M2110 3671 c0 -4 12 -26 26 -47 61 -89 151 -280 170 -359 2 -5 5 -19
8 -30 33 -131 57 -255 53 -278 -2 -15 0 -30 4 -33 5 -3 9 -271 9 -597 0 -325
4 -595 9 -600 4 -4 35 -7 67 -5 l59 3 -4 735 -3 735 -35 89 c-19 49 -45 105
-59 125 -13 20 -24 40 -24 45 0 5 -26 38 -57 74 -77 88 -223 182 -223 143z"/>
<path d="M2935 3651 c-57 -33 -166 -138 -201 -193 -22 -34 -43 -87 -82 -203
-15 -45 -17 -124 -17 -790 l0 -740 49 -3 c27 -2 60 -1 73 3 l23 5 0 643 c0
610 1 648 20 733 11 49 27 119 35 156 19 85 76 218 143 331 48 81 50 87 29 87
-12 0 -44 -13 -72 -29z"/>
<path d="M1166 3504 c-30 -30 -15 -78 32 -103 12 -6 22 -18 22 -26 0 -7 8 -13
18 -12 18 1 112 -50 112 -61 0 -4 -5 -14 -10 -22 -8 -13 -19 -10 -75 18 -36
17 -69 32 -74 32 -8 0 -51 -94 -51 -112 0 -5 -7 -16 -15 -24 -8 -9 -15 -26
-15 -40 0 -21 2 -23 19 -12 16 10 29 8 70 -12 55 -25 59 -31 35 -50 -12 -11
-25 -10 -70 4 -63 20 -79 14 -89 -35 -5 -20 -1 -38 9 -54 20 -30 36 -32 36 -5
0 11 -4 20 -10 20 -11 0 -14 33 -4 42 3 3 14 4 25 1 15 -4 19 -14 19 -43 0
-30 6 -43 27 -58 39 -28 24 -36 -44 -24 -75 13 -103 -1 -103 -54 0 -30 -3 -35
-17 -30 -9 4 -35 9 -58 12 -40 6 -40 6 -39 -27 1 -33 24 -56 24 -24 0 12 6 15
19 10 11 -3 43 -10 73 -15 105 -18 123 -23 135 -38 7 -9 15 -14 17 -11 6 6 47
211 49 244 1 17 10 36 19 43 10 7 18 19 18 26 0 8 9 35 21 61 22 49 18 74 -7
41 -13 -18 -15 -18 -59 -2 -55 21 -62 32 -40 56 15 16 15 22 5 35 -23 28 13
27 66 -2 35 -20 49 -33 46 -45 -7 -35 17 -17 46 35 16 28 37 66 48 84 20 35
11 60 -11 29 -14 -18 -16 -17 -65 14 -43 27 -49 35 -44 56 7 27 -10 33 -24 8
-10 -18 -37 -9 -62 22 -12 14 -12 18 4 29 10 8 15 18 11 24 -9 15 -21 14 -39
-5z m42 -503 c3 -19 0 -22 -13 -17 -9 3 -19 6 -21 6 -2 0 -4 9 -4 21 0 29 34
21 38 -10z m-25 -131 c16 -15 -3 -50 -27 -50 -73 0 -106 23 -86 60 8 15 15 16
57 8 27 -6 52 -14 56 -18z"/>
<path d="M1114 3349 c-3 -6 1 -18 10 -27 14 -14 18 -15 25 -3 5 8 7 20 4 28
-6 16 -29 17 -39 2z"/>
<path d="M3916 3349 c-73 -20 -99 -91 -51 -143 30 -32 76 -34 122 -6 40 24 50
58 29 97 -25 49 -54 65 -100 52z m70 -44 c11 -29 -6 -62 -41 -81 -40 -21 -68
-12 -73 23 -7 44 99 97 114 58z"/>
<path d="M3204 3341 c-121 -31 -233 -129 -285 -249 l-34 -77 -3 -452 c-3 -382
-1 -453 10 -453 8 0 24 17 36 38 11 20 39 57 61 82 l41 44 0 277 c0 255 1 277
18 292 26 24 59 21 76 -5 12 -18 16 -69 18 -230 3 -237 2 -234 84 -178 24 17
63 37 86 46 72 25 68 0 68 383 0 370 -1 358 50 438 11 17 12 25 3 34 -14 14
-185 22 -229 10z"/>
<path d="M1728 3323 c-22 -5 -24 -36 -4 -52 8 -7 22 -29 32 -49 17 -33 19 -76
24 -390 l5 -353 58 -24 c32 -13 76 -35 98 -49 71 -47 69 -52 69 193 0 186 2
222 16 235 20 21 47 20 66 -1 13 -15 16 -65 20 -292 5 -274 5 -274 29 -296 32
-27 94 -105 102 -127 3 -10 11 -18 17 -18 12 0 13 667 1 825 -9 128 -43 207
-125 288 -68 68 -113 93 -197 107 -64 10 -178 12 -211 3z"/>
<path d="M4132 3239 c-14 -35 -193 -109 -217 -89 -8 7 -18 10 -21 7 -11 -10
28 -97 43 -97 10 0 12 6 8 19 -5 16 11 25 112 66 65 26 119 48 121 50 2 1 -6
18 -17 36 l-20 33 -9 -25z"/>
<path d="M3531 3052 c-21 -22 -41 -54 -45 -72 -8 -41 -8 -397 0 -427 6 -21 12
-23 70 -23 34 0 65 3 67 8 3 4 6 129 8 277 l4 270 -33 3 c-28 3 -40 -3 -71
-36z"/>
<path d="M3968 3060 c-25 -26 -29 -36 -24 -63 9 -49 51 -80 99 -74 21 3 50 16
64 29 21 19 24 29 20 63 -7 50 -36 75 -89 75 -31 0 -46 -7 -70 -30z m122 -15
c29 -34 -24 -89 -82 -83 -76 7 -27 89 58 97 6 1 17 -6 24 -14z"/>
<path d="M1518 3045 c-9 -10 4 -520 14 -532 11 -13 94 -18 122 -7 14 5 16 32
16 198 0 201 -5 238 -42 292 -29 42 -89 69 -110 49z"/>
<path d="M4054 2906 c-13 -10 -39 -13 -82 -10 -53 3 -63 1 -72 -16 -14 -26
-12 -70 4 -100 8 -13 12 -38 9 -56 -7 -42 14 -56 142 -96 55 -17 105 -37 111
-44 15 -19 24 -7 24 33 0 23 -5 33 -15 33 -8 0 -15 -4 -15 -10 0 -13 -32 -13
-67 1 l-28 11 45 20 c28 12 46 15 48 9 2 -6 8 -11 13 -11 12 0 11 79 -1 155
-14 85 -62 119 -116 81z m82 -41 c9 -23 -15 -45 -47 -45 -24 0 -29 4 -29 24 0
13 6 27 13 29 25 11 58 6 63 -8z m-166 -14 c28 -53 -4 -120 -36 -76 -15 20
-19 77 -7 88 12 13 32 7 43 -12z m88 -57 c9 -7 31 -14 48 -14 27 0 64 -24 53
-34 -2 -2 -37 -20 -77 -40 l-73 -37 -33 21 c-33 20 -64 50 -53 50 3 0 17 -4
31 -10 19 -7 30 -5 48 10 19 15 23 27 21 67 -1 39 1 44 8 24 5 -13 17 -30 27
-37z"/>
<path d="M932 2725 c-18 -40 -14 -70 13 -99 45 -48 105 -29 135 44 7 16 18 31
27 34 23 9 53 -12 53 -38 0 -24 -28 -56 -48 -56 -7 0 -12 -4 -12 -10 0 -5 16
-10 35 -10 31 0 35 3 45 39 17 65 -11 112 -69 113 -37 1 -57 -14 -82 -64 -14
-28 -26 -38 -43 -38 -14 0 -26 5 -28 12 -8 24 5 61 23 65 30 8 23 33 -9 33
-21 0 -32 -7 -40 -25z"/>
<path d="M3410 2405 c-121 -42 -194 -89 -290 -185 -112 -112 -212 -286 -253
-437 -14 -54 -5 -63 66 -63 53 0 82 21 93 67 9 38 59 135 108 208 78 118 200
225 287 254 50 16 71 6 67 -33 -2 -24 -14 -39 -52 -66 -118 -84 -257 -259
-297 -373 -12 -33 -11 -39 1 -47 16 -10 92 -12 123 -3 10 3 47 48 81 101 55
85 86 119 193 213 44 40 137 88 216 114 65 21 103 27 180 27 64 1 97 4 97 12
-1 30 -117 125 -209 171 -82 41 -137 55 -241 61 -85 4 -103 2 -170 -21z"/>
<path d="M1520 2404 c-34 -7 -139 -44 -171 -60 -96 -49 -226 -159 -217 -186 3
-9 22 -12 71 -10 229 12 497 -141 634 -363 20 -33 41 -63 47 -67 6 -4 42 -8
79 -8 52 0 69 4 74 15 14 37 -75 192 -164 286 -25 26 -73 66 -107 88 -99 65
-106 71 -106 89 0 45 48 54 117 22 134 -60 304 -259 369 -430 l21 -55 71 -3
c87 -3 87 -1 41 115 -128 322 -394 552 -656 567 -43 2 -89 2 -103 0z"/>
<path d="M3910 2093 c-68 -11 -188 -60 -253 -102 -75 -49 -207 -175 -207 -198
0 -7 -3 -13 -7 -13 -11 0 -63 -84 -63 -101 0 -18 87 -89 109 -89 9 0 27 17 40
38 65 101 166 202 247 246 111 62 142 69 284 71 87 2 135 6 138 13 2 6 -8 27
-22 45 -14 19 -26 39 -26 45 0 6 -12 20 -26 31 -23 18 -40 21 -108 20 -44 -1
-92 -4 -106 -6z"/>
<path d="M1047 2048 c-22 -16 -78 -128 -70 -140 3 -5 24 -6 47 -3 111 19 243
-3 348 -56 117 -60 222 -157 279 -259 13 -22 28 -40 34 -40 21 0 117 109 109
123 -112 187 -316 339 -501 372 -99 18 -224 19 -246 3z"/>
<path d="M2523 1624 c-43 -21 -78 -91 -69 -139 14 -74 81 -119 159 -104 45 8
75 32 93 76 19 43 18 72 -4 112 -34 63 -113 87 -179 55z"/>
<path d="M2768 1614 c-14 -13 -9 -131 5 -142 8 -7 83 -11 203 -11 115 0 202
-5 220 -11 41 -16 96 -60 91 -73 -3 -9 -79 -13 -263 -17 l-259 -5 0 -135 0
-135 379 -3 c289 -2 382 1 394 10 11 10 13 27 8 86 -4 40 -11 83 -16 95 -57
146 -85 190 -160 249 -25 19 -70 48 -100 63 -54 28 -59 28 -275 33 -121 2
-223 1 -227 -4z"/>
<path d="M2013 1599 c-85 -14 -181 -66 -249 -134 -48 -49 -66 -76 -88 -135
-28 -76 -52 -219 -42 -245 5 -13 57 -15 393 -13 l388 3 3 129 c2 97 -1 131
-10 138 -7 4 -127 8 -265 8 -139 0 -253 4 -253 9 0 20 43 60 82 76 34 14 84
19 241 23 l197 5 0 73 0 74 -172 -1 c-95 -1 -196 -5 -225 -10z"/>
<path d="M2540 1174 c-19 -31 -56 -85 -82 -121 -52 -72 -59 -93 -28 -93 37 0
99 -40 126 -80 29 -43 49 -51 58 -22 13 40 66 81 122 93 30 7 54 16 54 20 0 4
-26 41 -58 81 -32 40 -74 97 -92 126 -19 28 -42 52 -50 52 -8 -1 -31 -26 -50
-56z"/>
</g>
</svg>
