<?xml version="1.0" standalone="no"?>
<!DOCTYPE svg PUBLIC "-//W3C//DTD SVG 20010904//EN"
 "http://www.w3.org/TR/2001/REC-SVG-20010904/DTD/svg10.dtd">
<svg version="1.0" xmlns="http://www.w3.org/2000/svg"
 width="216.000000pt" height="233.000000pt" viewBox="0 0 216.000000 233.000000"
 preserveAspectRatio="xMidYMid meet">

<g transform="translate(0.000000,233.000000) scale(0.100000,-0.100000)"
fill="#000000" stroke="none">
<path d="M987 1879 c-27 -4 -47 -16 -67 -41 -31 -37 -77 -60 -168 -84 -86 -23
-140 -65 -168 -132 -8 -20 -21 -82 -29 -137 -15 -106 -36 -175 -79 -268 -21
-43 -26 -64 -20 -92 3 -19 10 -35 14 -35 11 0 67 65 84 98 29 57 87 260 93
325 3 38 11 74 17 80 6 7 19 24 29 39 15 24 20 26 37 16 10 -7 23 -21 28 -32
6 -13 19 -20 38 -21 22 0 30 -5 32 -21 2 -17 8 -21 24 -16 14 3 19 1 14 -6
-11 -18 34 -35 101 -36 68 -1 88 -20 31 -29 -47 -7 -161 11 -172 26 -6 10 -15
6 -37 -16 -16 -16 -35 -27 -42 -25 -16 6 -22 47 -8 61 17 17 13 54 -5 61 -9 4
-19 4 -22 1 -3 -3 0 -5 6 -5 23 0 22 -38 -1 -73 -13 -19 -52 -118 -86 -221
-50 -146 -62 -195 -59 -232 2 -37 -1 -49 -15 -58 -14 -9 -21 -7 -31 7 -16 20
-36 22 -36 3 0 -7 10 -16 21 -19 17 -5 20 -11 15 -30 -4 -17 0 -33 12 -48 l19
-22 33 69 c18 38 43 101 55 139 23 70 23 70 35 40 37 -98 52 -176 56 -300 l4
-130 47 -27 c47 -27 180 -68 221 -68 13 0 22 6 22 15 0 35 72 39 91 4 5 -11
20 -19 32 -19 38 0 170 40 218 67 l46 25 6 141 c4 121 9 155 34 232 l29 90 16
-45 c8 -25 35 -90 58 -143 l43 -98 19 28 c10 15 17 38 16 51 -2 15 6 30 22 42
15 12 19 20 11 20 -8 0 -23 -8 -33 -17 -27 -24 -42 -4 -44 60 -3 64 -118 388
-160 449 l-28 40 24 20 c21 17 22 20 6 17 -30 -6 -42 -34 -27 -62 14 -27 12
-58 -5 -64 -6 -2 -25 9 -41 25 -23 21 -33 25 -39 15 -12 -16 -123 -34 -169
-26 -31 5 -35 3 -35 -15 0 -26 48 -37 119 -29 66 8 104 26 90 44 -9 10 -8 13
3 13 20 0 52 -36 44 -49 -11 -17 -76 -30 -169 -33 -82 -3 -88 -4 -83 -23 3
-11 6 -34 6 -50 0 -28 3 -31 53 -43 109 -25 202 -9 202 35 1 34 13 38 26 10 9
-21 9 -30 -1 -41 -10 -13 -9 -18 4 -31 19 -19 19 -21 6 -46 -7 -12 -7 -19 -1
-19 6 0 13 -15 17 -34 7 -40 -11 -86 -41 -101 -19 -9 -19 -13 -7 -35 16 -31 9
-97 -13 -119 -16 -15 -19 -14 -38 13 -86 117 -142 188 -181 234 l-46 54 -17
-39 -16 -38 -11 25 c-24 54 -25 53 -103 -42 -41 -51 -93 -119 -114 -150 -21
-31 -44 -60 -50 -64 -31 -19 -54 90 -29 137 8 15 7 19 -4 19 -25 0 -48 46 -48
92 1 24 5 44 9 45 5 2 7 19 5 38 -3 23 0 35 8 35 7 0 10 -7 6 -15 -10 -28 36
-67 87 -72 54 -6 77 7 77 44 0 24 -2 24 -54 18 -52 -7 -56 -6 -92 28 -35 32
-37 37 -26 61 8 18 16 24 29 19 10 -4 12 -8 5 -11 -22 -7 -13 -31 18 -47 54
-28 230 -9 230 25 0 12 -17 15 -97 15 -80 0 -104 4 -130 20 -33 19 -45 57 -23
70 6 4 9 1 8 -7 -9 -42 219 -79 248 -40 18 23 18 48 2 35 -23 -18 -212 0 -242
22 -19 14 -19 15 -1 35 21 23 55 29 36 6 -18 -21 73 -49 147 -44 63 3 70 10
71 71 1 36 2 37 37 37 28 0 37 -5 41 -21 6 -20 11 -21 69 -16 68 7 108 22 99
38 -9 14 19 11 34 -3 10 -11 12 -7 9 17 -3 27 0 30 25 30 18 1 36 12 56 35
l28 34 19 -29 c10 -16 27 -38 37 -47 11 -12 17 -34 17 -66 0 -47 37 -183 77
-288 19 -48 88 -144 104 -144 4 0 10 15 13 34 5 26 -1 49 -29 107 -38 82 -75
212 -75 269 0 57 -28 137 -62 176 -36 40 -82 66 -152 83 -67 17 -143 57 -157
83 -17 32 -28 38 -71 38 -31 0 -38 -4 -38 -19 0 -50 -69 -55 -85 -6 -9 29 -12
30 -48 24z m130 -121 l-2 -53 -36 -3 c-27 -2 -38 1 -43 14 -4 10 -1 21 6 25
10 7 10 11 0 21 -6 6 -12 20 -12 30 0 15 8 18 45 18 l45 0 -3 -52z m-7 -79 c0
-16 42 -48 65 -50 14 0 6 -7 -22 -20 -24 -11 -43 -26 -43 -34 0 -10 -11 -15
-35 -15 -24 0 -35 5 -35 15 0 8 -19 23 -42 34 -29 13 -37 20 -23 20 23 2 65
34 65 50 0 6 16 11 35 11 19 0 35 -5 35 -11z m-160 -10 c64 -1 72 -3 57 -14
-22 -16 -257 -20 -257 -5 0 18 43 30 85 25 22 -3 74 -6 115 -6z m424 1 c14 -5
26 -15 26 -21 0 -8 -23 -10 -79 -7 l-79 5 31 -21 c17 -12 32 -26 34 -32 5 -16
-71 -45 -134 -51 -78 -8 -66 13 15 27 37 6 74 15 81 19 19 12 4 31 -25 31 -14
0 -22 4 -19 10 4 6 -8 10 -28 10 -19 0 -40 7 -47 15 -10 12 0 15 77 18 48 1
96 4 105 5 9 1 28 -2 42 -8z m-450 -39 c3 -5 -8 -11 -25 -15 -26 -5 -29 -9
-20 -20 7 -8 31 -17 54 -21 78 -12 97 -17 97 -26 0 -24 -156 7 -180 36 -10 11
-5 18 22 35 37 22 44 24 52 11z m470 -236 c-15 -38 -135 -66 -218 -51 -57 11
-45 32 16 27 70 -4 179 25 186 52 4 16 6 17 13 4 5 -8 6 -23 3 -32z m-275
-270 c17 -10 13 -55 -5 -55 -14 0 -14 -2 1 -16 9 -9 15 -28 13 -43 -2 -20 -10
-27 -33 -32 -23 -5 -24 -7 -8 -8 27 -1 47 -35 39 -66 -5 -20 -12 -23 -47 -21
-26 1 -44 8 -50 18 -11 20 5 68 23 68 6 0 4 6 -6 13 -12 9 -17 23 -14 42 2 24
9 31 33 36 29 6 29 7 -7 8 -30 1 -38 5 -38 20 0 11 6 26 14 33 14 14 65 16 85
3z m1 -276 c6 -11 10 -30 8 -42 -3 -19 -10 -22 -50 -24 -39 -2 -48 1 -49 15
-4 56 6 72 45 72 25 0 38 -6 46 -21z m-5 -95 c9 -9 15 -28 13 -43 -3 -23 -9
-27 -46 -32 -38 -5 -45 -3 -52 15 -21 57 43 102 85 60z"/>
<path d="M1055 1650 c3 -5 12 -10 20 -10 8 0 17 5 20 10 4 6 -5 10 -20 10 -15
0 -24 -4 -20 -10z"/>
<path d="M983 1283 c-31 -16 -52 -48 -39 -60 3 -4 16 2 29 13 53 47 56 48 66
23 9 -22 10 -22 10 -3 1 19 -16 45 -28 43 -4 0 -21 -8 -38 -16z"/>
<path d="M1117 1285 c-9 -7 -17 -21 -17 -31 1 -16 3 -16 14 5 l13 23 37 -32
c40 -35 56 -34 38 4 -14 31 -62 48 -85 31z"/>
<path d="M1367 1263 c-21 -10 -43 -13 -78 -8 -47 7 -49 6 -49 -18 0 -13 7 -30
15 -37 23 -19 102 -7 131 21 41 39 29 67 -19 42z"/>
<path d="M746 1183 c-15 -15 -4 -54 18 -68 32 -21 110 -17 114 7 2 12 -7 18
-37 23 -22 4 -51 15 -64 26 -14 10 -27 15 -31 12z"/>
<path d="M1372 1171 c-12 -11 -40 -22 -63 -26 -30 -5 -39 -11 -37 -23 2 -12
16 -18 49 -20 58 -4 106 30 95 66 -9 27 -14 27 -44 3z"/>
<path d="M794 1038 c-1 -13 -5 -38 -9 -55 -10 -45 6 -42 33 6 28 50 28 71 0
71 -17 0 -23 -6 -24 -22z"/>
<path d="M1315 1033 c3 -15 16 -41 28 -57 18 -25 22 -28 25 -13 2 10 -1 32 -7
49 -6 16 -8 34 -5 39 3 5 -7 9 -21 9 -24 0 -26 -3 -20 -27z"/>
<path d="M0 85 l0 -85 1080 0 1080 0 0 85 0 85 -1080 0 -1080 0 0 -85z m295
15 c-17 -7 -17 -9 -2 -9 19 -1 23 -26 6 -37 -6 -3 -16 -1 -22 6 -9 10 -9 11 0
6 6 -3 14 -2 17 3 3 5 -1 11 -9 15 -23 8 -18 26 8 25 21 0 21 -1 2 -9z m32
-27 c-3 -10 -5 -4 -5 12 0 17 2 24 5 18 2 -7 2 -21 0 -30z m112 21 c4 3 7 -3
7 -13 0 -10 -6 -18 -13 -18 -8 0 -13 11 -12 26 0 14 3 20 6 13 2 -6 8 -10 12
-8z m-216 -3 c-4 -3 -10 -9 -13 -12 -3 -4 -10 -1 -17 6 -9 10 -6 13 13 13 14
0 21 -3 17 -7z m174 -4 c-9 -7 -9 -10 1 -14 23 -9 12 -18 -20 -17 -25 1 -34 6
-36 21 -3 18 2 21 32 20 24 -1 32 -4 23 -10z m1324 -11 c5 3 9 0 9 -6 0 -15
-23 -7 -26 8 -1 7 0 8 3 2 2 -5 9 -8 14 -4z m206 -8 c-3 -8 -6 -5 -6 6 -1 11
2 17 5 13 3 -3 4 -12 1 -19z m53 1 c0 -5 -4 -9 -10 -9 -5 0 -10 7 -10 16 0 8
5 12 10 9 6 -3 10 -10 10 -16z m63 6 c3 -6 -4 -11 -14 -11 -11 0 -19 5 -19 11
0 7 7 12 15 12 8 0 16 -5 18 -12z m-1919 -11 c3 -8 2 -12 -4 -9 -6 3 -10 10
-10 16 0 14 7 11 14 -7z m1566 6 c0 -5 -7 -10 -16 -10 -8 0 -12 5 -9 10 3 6
10 10 16 10 5 0 9 -4 9 -10z m200 6 c0 -9 -30 -14 -35 -6 -4 6 3 10 14 10 12
0 21 -2 21 -4z"/>
<path d="M350 74 c0 -8 5 -12 10 -9 6 3 10 10 10 16 0 5 -4 9 -10 9 -5 0 -10
-7 -10 -16z"/>
</g>
</svg>
